<?xml version="1.0" encoding="utf-8"?>
<!-- Generator: Adobe Illustrator 22.0.1, SVG Export Plug-In . SVG Version: 6.00 Build 0)  -->
<svg version="1.2" baseProfile="tiny" id="Layer_1" xmlns="http://www.w3.org/2000/svg" xmlns:xlink="http://www.w3.org/1999/xlink"
	 x="0px" y="0px" viewBox="0 0 210 52" xml:space="preserve">
<g>
	<g>
		<path fill="#F47F28" d="M14.5,18.2c1.5-0.8,12.2-7,14.1-8.2c1.8,1,11,6.5,13.9,8.2h10.4L28.6,4L4.3,18.2H14.5z"/>
		<g>
			<path fill="#005893" d="M16.4,21.5c0.8,0,1.5,0.1,2,0.2L18,27.3c-0.5-0.1-1.1-0.2-1.7-0.2c-1.9,0-3.4,0.5-4.4,1.5
				c-1.1,1-1.6,2.3-1.6,4.1v11.1h-6V21.9h4.5l0.9,3.7H10c0.7-1.2,1.6-2.2,2.7-3C13.8,21.9,15,21.5,16.4,21.5z"/>
			<path fill="#005893" d="M29.2,44.2c-3.5,0-6.2-1-8.2-2.9s-3-4.7-3-8.2c0-3.7,0.9-6.5,2.7-8.5c1.8-2,4.3-3,7.5-3
				c3.1,0,5.5,0.9,7.2,2.6s2.6,4.2,2.6,7.3v2.9H24c0.1,1.7,0.6,3,1.5,4s2.2,1.4,3.9,1.4c1.3,0,2.5-0.1,3.7-0.4
				c1.2-0.3,2.4-0.7,3.6-1.3v4.6c-1,0.5-2.1,0.9-3.3,1.2C32.4,44,30.9,44.2,29.2,44.2z M28.4,25.8c-1.3,0-2.2,0.4-3,1.2
				c-0.7,0.8-1.1,1.9-1.2,3.4h8.3c0-1.5-0.4-2.6-1.1-3.4S29.7,25.8,28.4,25.8z"/>
			<path fill="#005893" d="M60.3,43.8h-5.9V31c0-1.6-0.3-2.8-0.8-3.5c-0.6-0.8-1.4-1.2-2.7-1.2c-1.7,0-2.9,0.6-3.6,1.7
				c-0.7,1.1-1.1,3-1.1,5.5v10.3h-5.9V21.9h4.5l0.8,2.8h0.3c0.7-1.1,1.6-1.9,2.7-2.4c1.2-0.5,2.5-0.8,4-0.8c2.5,0,4.4,0.7,5.7,2.1
				s2,3.4,2,5.9V43.8z"/>
			<path fill="#005893" d="M72.4,39.4c1,0,2.3-0.2,3.7-0.7v4.4c-1.5,0.7-3.3,1-5.4,1c-2.4,0-4.1-0.6-5.2-1.8s-1.6-3-1.6-5.4V26.4
				h-2.8v-2.5l3.3-2l1.7-4.6h3.8v4.6H76v4.5h-6.1v10.5c0,0.8,0.2,1.5,0.7,1.9C71,39.2,71.7,39.4,72.4,39.4z"/>
		</g>
	</g>
	<g>
		<path fill="#F47F28" d="M89.4,21.6c2.8,0,5,1,6.6,2.9s2.4,4.7,2.4,8.2S97.5,39,96,41c-1.6,2-3.8,2.9-6.6,2.9
			c-1.4,0-2.7-0.3-3.8-0.8c-1.2-0.5-2.1-1.3-2.9-2.4h-0.2l-0.7,2.8h-2.3V12.9h3.3v7.4c0,1.7-0.1,3.2-0.2,4.5h0.2
			C84.1,22.7,86.4,21.6,89.4,21.6z M88.9,24.3c-2.2,0-3.8,0.6-4.8,1.9s-1.5,3.4-1.5,6.5c0,3,0.5,5.2,1.5,6.5s2.6,2,4.9,2
			c2,0,3.5-0.7,4.5-2.2s1.5-3.6,1.5-6.3c0-2.8-0.5-4.9-1.5-6.3C92.5,25,91,24.3,88.9,24.3z"/>
		<path fill="#F47F28" d="M120.4,32.7c0,3.5-0.9,6.3-2.7,8.2c-1.8,2-4.2,3-7.3,3c-1.9,0-3.6-0.5-5.1-1.4s-2.6-2.2-3.5-3.9
			c-0.8-1.7-1.2-3.7-1.2-5.9c0-3.5,0.9-6.3,2.6-8.2c1.8-2,4.2-2.9,7.3-2.9c3,0,5.4,1,7.2,3C119.6,26.6,120.4,29.3,120.4,32.7z
			 M104,32.7c0,2.8,0.6,4.9,1.7,6.3c1.1,1.4,2.7,2.2,4.9,2.2c2.1,0,3.8-0.7,4.9-2.2c1.1-1.4,1.7-3.5,1.7-6.3c0-2.7-0.6-4.8-1.7-6.2
			c-1.1-1.4-2.7-2.1-4.9-2.1c-2.1,0-3.8,0.7-4.8,2.1C104.6,27.8,104,29.9,104,32.7z"/>
		<path fill="#F47F28" d="M137.5,43.5V29.6c0-1.8-0.4-3.1-1.2-3.9c-0.8-0.9-2.1-1.3-3.8-1.3c-2.3,0-3.9,0.6-5,1.8
			c-1,1.2-1.6,3.2-1.6,6v11.3h-3.3V21.9h2.7l0.5,3h0.2c0.7-1.1,1.6-1.9,2.8-2.5s2.6-0.9,4-0.9c2.6,0,4.6,0.6,5.9,1.9
			c1.3,1.3,2,3.3,2,6v14.1H137.5z"/>
		<path fill="#F47F28" d="M159,40.6h-0.2c-1.5,2.2-3.8,3.3-6.8,3.3c-2.8,0-5-1-6.6-2.9s-2.4-4.7-2.4-8.2s0.8-6.3,2.4-8.3
			c1.6-2,3.8-3,6.6-3c2.9,0,5.2,1.1,6.7,3.2h0.3l-0.1-1.6l-0.1-1.5v-8.8h3.3v30.6h-2.7L159,40.6z M152.5,41.2c2.2,0,3.8-0.6,4.8-1.8
			s1.5-3.2,1.5-5.9v-0.7c0-3.1-0.5-5.2-1.5-6.5s-2.6-2-4.9-2c-1.9,0-3.4,0.7-4.4,2.2s-1.5,3.6-1.5,6.3c0,2.8,0.5,4.8,1.5,6.2
			C149,40.5,150.5,41.2,152.5,41.2z"/>
	</g>
</g>
</svg>
